<svg xmlns="http://www.w3.org/2000/svg" xmlns:xlink="http://www.w3.org/1999/xlink" width="72" zoomAndPan="magnify" viewBox="0 0 804 803.999993" height="72" preserveAspectRatio="xMidYMid meet" version="1.0"><defs><clipPath id="c154471e1d"><path d="M 188.347656 184 L 621.847656 184 L 621.847656 620 L 188.347656 620 Z M 188.347656 184 " clip-rule="nonzero"/></clipPath></defs><path fill="#075fe4" d="M 804 402 C 804 408.578125 803.839844 415.152344 803.515625 421.726562 C 803.191406 428.296875 802.707031 434.855469 802.0625 441.402344 C 801.417969 447.949219 800.613281 454.476562 799.648438 460.984375 C 798.683594 467.492188 797.558594 473.972656 796.277344 480.425781 C 794.992188 486.878906 793.550781 493.296875 791.953125 499.679688 C 790.355469 506.058594 788.601562 512.398438 786.691406 518.695312 C 784.78125 524.988281 782.71875 531.234375 780.5 537.429688 C 778.285156 543.625 775.917969 549.761719 773.398438 555.839844 C 770.882812 561.917969 768.214844 567.929688 765.402344 573.878906 C 762.589844 579.824219 759.632812 585.699219 756.53125 591.5 C 753.429688 597.304688 750.1875 603.027344 746.804688 608.667969 C 743.425781 614.3125 739.90625 619.867188 736.25 625.339844 C 732.59375 630.808594 728.808594 636.1875 724.890625 641.472656 C 720.96875 646.753906 716.921875 651.941406 712.75 657.027344 C 708.578125 662.113281 704.28125 667.09375 699.863281 671.964844 C 695.445312 676.839844 690.910156 681.605469 686.257812 686.257812 C 681.605469 690.910156 676.839844 695.445312 671.964844 699.863281 C 667.089844 704.28125 662.113281 708.578125 657.027344 712.75 C 651.941406 716.921875 646.753906 720.96875 641.472656 724.890625 C 636.1875 728.808594 630.808594 732.59375 625.339844 736.25 C 619.867188 739.90625 614.3125 743.425781 608.667969 746.808594 C 603.027344 750.1875 597.304688 753.429688 591.5 756.53125 C 585.699219 759.632812 579.824219 762.589844 573.878906 765.402344 C 567.929688 768.214844 561.917969 770.882812 555.839844 773.398438 C 549.761719 775.917969 543.625 778.285156 537.429688 780.5 C 531.234375 782.71875 524.988281 784.78125 518.695312 786.691406 C 512.398438 788.601562 506.058594 790.355469 499.679688 791.953125 C 493.296875 793.550781 486.878906 794.992188 480.425781 796.277344 C 473.972656 797.558594 467.492188 798.683594 460.984375 799.648438 C 454.476562 800.613281 447.949219 801.417969 441.402344 802.0625 C 434.855469 802.707031 428.296875 803.191406 421.726562 803.515625 C 415.152344 803.839844 408.578125 804 402 804 C 395.421875 804 388.847656 803.839844 382.273438 803.515625 C 375.703125 803.191406 369.144531 802.707031 362.597656 802.0625 C 356.050781 801.417969 349.523438 800.613281 343.015625 799.648438 C 336.507812 798.683594 330.027344 797.558594 323.574219 796.277344 C 317.121094 794.992188 310.703125 793.550781 304.320312 791.953125 C 297.941406 790.355469 291.601562 788.601562 285.304688 786.691406 C 279.011719 784.78125 272.765625 782.71875 266.570312 780.5 C 260.375 778.285156 254.238281 775.917969 248.160156 773.398438 C 242.082031 770.882812 236.070312 768.214844 230.121094 765.402344 C 224.175781 762.589844 218.300781 759.632812 212.5 756.53125 C 206.695312 753.429688 200.972656 750.1875 195.332031 746.804688 C 189.6875 743.425781 184.132812 739.90625 178.660156 736.25 C 173.191406 732.59375 167.8125 728.808594 162.527344 724.890625 C 157.246094 720.96875 152.058594 716.921875 146.972656 712.75 C 141.886719 708.578125 136.90625 704.28125 132.035156 699.863281 C 127.160156 695.445312 122.394531 690.910156 117.742188 686.257812 C 113.089844 681.605469 108.554688 676.839844 104.136719 671.964844 C 99.71875 667.09375 95.421875 662.113281 91.25 657.027344 C 87.074219 651.941406 83.03125 646.753906 79.109375 641.472656 C 75.191406 636.1875 71.40625 630.808594 67.75 625.339844 C 64.09375 619.867188 60.574219 614.3125 57.191406 608.667969 C 53.8125 603.027344 50.570312 597.304688 47.46875 591.5 C 44.367188 585.699219 41.410156 579.824219 38.597656 573.878906 C 35.785156 567.929688 33.117188 561.917969 30.601562 555.839844 C 28.082031 549.761719 25.714844 543.625 23.5 537.429688 C 21.28125 531.234375 19.21875 524.988281 17.308594 518.695312 C 15.398438 512.398438 13.644531 506.058594 12.046875 499.679688 C 10.449219 493.296875 9.007812 486.878906 7.722656 480.425781 C 6.441406 473.972656 5.316406 467.492188 4.351562 460.984375 C 3.386719 454.476562 2.582031 447.949219 1.9375 441.402344 C 1.289062 434.855469 0.808594 428.296875 0.484375 421.726562 C 0.160156 415.152344 0 408.578125 0 402 C 0 395.421875 0.160156 388.847656 0.484375 382.273438 C 0.808594 375.703125 1.289062 369.144531 1.9375 362.597656 C 2.582031 356.050781 3.386719 349.523438 4.351562 343.015625 C 5.316406 336.507812 6.441406 330.027344 7.722656 323.574219 C 9.007812 317.121094 10.449219 310.703125 12.046875 304.320312 C 13.644531 297.941406 15.398438 291.601562 17.308594 285.304688 C 19.21875 279.011719 21.28125 272.765625 23.5 266.570312 C 25.714844 260.375 28.082031 254.238281 30.601562 248.160156 C 33.117188 242.082031 35.785156 236.070312 38.597656 230.121094 C 41.410156 224.175781 44.367188 218.300781 47.46875 212.5 C 50.570312 206.695312 53.8125 200.972656 57.191406 195.332031 C 60.574219 189.6875 64.09375 184.132812 67.75 178.660156 C 71.40625 173.191406 75.191406 167.8125 79.109375 162.527344 C 83.03125 157.246094 87.074219 152.058594 91.25 146.972656 C 95.421875 141.886719 99.71875 136.90625 104.136719 132.035156 C 108.554688 127.160156 113.089844 122.394531 117.742188 117.742188 C 122.394531 113.089844 127.160156 108.554688 132.035156 104.136719 C 136.90625 99.71875 141.886719 95.421875 146.972656 91.25 C 152.058594 87.074219 157.246094 83.03125 162.527344 79.109375 C 167.8125 75.191406 173.191406 71.40625 178.660156 67.75 C 184.132812 64.09375 189.6875 60.574219 195.332031 57.191406 C 200.972656 53.8125 206.695312 50.570312 212.5 47.46875 C 218.300781 44.367188 224.175781 41.410156 230.121094 38.597656 C 236.070312 35.785156 242.082031 33.117188 248.160156 30.601562 C 254.238281 28.082031 260.375 25.714844 266.570312 23.5 C 272.765625 21.28125 279.011719 19.21875 285.304688 17.308594 C 291.601562 15.398438 297.941406 13.644531 304.320312 12.046875 C 310.703125 10.449219 317.121094 9.007812 323.574219 7.722656 C 330.027344 6.441406 336.507812 5.316406 343.015625 4.351562 C 349.523438 3.386719 356.050781 2.582031 362.597656 1.9375 C 369.144531 1.289062 375.703125 0.808594 382.273438 0.484375 C 388.847656 0.160156 395.421875 0 402 0 C 408.578125 0 415.152344 0.160156 421.726562 0.484375 C 428.296875 0.808594 434.855469 1.289062 441.402344 1.9375 C 447.949219 2.582031 454.476562 3.386719 460.984375 4.351562 C 467.492188 5.316406 473.972656 6.441406 480.425781 7.722656 C 486.878906 9.007812 493.296875 10.449219 499.679688 12.046875 C 506.058594 13.644531 512.398438 15.398438 518.695312 17.308594 C 524.988281 19.21875 531.234375 21.28125 537.429688 23.5 C 543.625 25.714844 549.761719 28.082031 555.839844 30.601562 C 561.917969 33.117188 567.929688 35.785156 573.878906 38.597656 C 579.824219 41.410156 585.699219 44.367188 591.5 47.46875 C 597.304688 50.570312 603.027344 53.8125 608.667969 57.191406 C 614.3125 60.574219 619.867188 64.09375 625.339844 67.75 C 630.808594 71.40625 636.1875 75.191406 641.472656 79.109375 C 646.753906 83.03125 651.941406 87.074219 657.027344 91.25 C 662.113281 95.421875 667.09375 99.71875 671.964844 104.136719 C 676.839844 108.554688 681.605469 113.089844 686.257812 117.742188 C 690.910156 122.394531 695.445312 127.160156 699.863281 132.035156 C 704.28125 136.90625 708.578125 141.886719 712.75 146.972656 C 716.921875 152.058594 720.96875 157.246094 724.890625 162.527344 C 728.808594 167.8125 732.59375 173.191406 736.25 178.660156 C 739.90625 184.132812 743.425781 189.6875 746.808594 195.332031 C 750.1875 200.972656 753.429688 206.695312 756.53125 212.5 C 759.632812 218.300781 762.589844 224.175781 765.402344 230.121094 C 768.214844 236.070312 770.882812 242.082031 773.398438 248.160156 C 775.917969 254.238281 778.285156 260.375 780.5 266.570312 C 782.71875 272.765625 784.78125 279.011719 786.691406 285.304688 C 788.601562 291.601562 790.355469 297.941406 791.953125 304.320312 C 793.550781 310.703125 794.992188 317.121094 796.277344 323.574219 C 797.558594 330.027344 798.683594 336.507812 799.648438 343.015625 C 800.613281 349.523438 801.417969 356.050781 802.0625 362.597656 C 802.707031 369.144531 803.191406 375.703125 803.515625 382.273438 C 803.839844 388.847656 804 395.421875 804 402 Z M 804 402 " fill-opacity="1" fill-rule="nonzero"/><path fill="#075fe4" d="M 398.449219 533.085938 L 622.863281 533.085938 L 622.863281 576.660156 L 398.449219 576.660156 Z M 404.035156 420.183594 L 206.453125 597.710938 L 267.945312 442.34375 L 181.144531 383.800781 L 378.726562 206.289062 L 311.84375 371.570312 Z M 404.035156 420.183594 " fill-opacity="1" fill-rule="nonzero"/><g clip-path="url(#c154471e1d)"><path fill="#ffffff" d="M 313.003906 184.003906 L 496.976562 184.003906 C 531.210938 184.003906 562.359375 198.054688 584.957031 220.617188 C 607.589844 243.214844 621.636719 274.394531 621.636719 308.664062 L 621.636719 495.296875 C 621.636719 529.496094 607.589844 560.640625 585.027344 583.238281 L 584.957031 583.3125 C 562.324219 605.910156 531.175781 619.921875 497.015625 619.921875 L 313.003906 619.921875 C 278.738281 619.921875 247.554688 605.871094 224.957031 583.3125 L 224.105469 582.351562 C 202.039062 559.863281 188.347656 529.070312 188.347656 495.261719 L 188.347656 308.664062 C 188.347656 274.359375 202.359375 243.214844 224.957031 220.617188 C 247.554688 198.019531 278.703125 184.003906 313.003906 184.003906 Z M 512.976562 294.046875 L 513.226562 294.4375 L 589.851562 294.4375 C 586.765625 274.289062 577.152344 256.195312 563.316406 242.328125 C 546.289062 225.296875 522.804688 214.726562 496.976562 214.726562 L 465.511719 214.726562 Z M 477.539062 294.4375 L 429.824219 214.726562 L 325.171875 214.726562 L 373.453125 294.4375 Z M 337.730469 294.4375 L 291.046875 217.316406 C 273.984375 221.429688 258.695312 230.265625 246.667969 242.328125 C 232.832031 256.160156 223.253906 274.289062 220.132812 294.4375 Z M 590.914062 325.160156 L 219.066406 325.160156 L 219.066406 495.296875 C 219.066406 520.734375 229.320312 543.898438 245.886719 560.855469 L 246.667969 561.601562 C 263.695312 578.628906 287.214844 589.234375 313.003906 589.234375 L 496.976562 589.234375 C 522.804688 589.234375 546.289062 578.664062 563.28125 561.671875 L 563.351562 561.601562 C 580.34375 544.609375 590.914062 521.125 590.914062 495.296875 Z M 369.089844 378.941406 L 464.269531 440.84375 C 465.796875 441.835938 467.179688 443.113281 468.277344 444.675781 C 472.605469 450.953125 471.011719 459.574219 464.730469 463.902344 L 369.941406 519.847656 C 367.566406 521.796875 364.515625 522.96875 361.144531 522.96875 C 353.484375 522.96875 347.273438 516.761719 347.273438 509.097656 L 347.273438 390.292969 L 347.34375 390.292969 C 347.34375 387.558594 348.160156 384.792969 349.828125 382.382812 C 354.226562 376.101562 362.847656 374.578125 369.089844 378.941406 Z M 369.089844 378.941406 " fill-opacity="1" fill-rule="nonzero"/></g></svg>