<svg xmlns="http://www.w3.org/2000/svg" xmlns:xlink="http://www.w3.org/1999/xlink" width="72" zoomAndPan="magnify" viewBox="0 0 804 803.999993" height="72" preserveAspectRatio="xMidYMid meet" version="1.0"><defs><clipPath id="06de49cfc3"><path d="M 298 248 L 505 248 L 505 622.144531 L 298 622.144531 Z M 298 248 " clip-rule="nonzero"/></clipPath><clipPath id="6371fc4a4a"><path d="M 209.40625 182 L 594 182 L 594 398 L 209.40625 398 Z M 209.40625 182 " clip-rule="nonzero"/></clipPath></defs><path fill="#075fe4" d="M 804 402 C 804 408.578125 803.839844 415.152344 803.515625 421.726562 C 803.191406 428.296875 802.707031 434.855469 802.0625 441.402344 C 801.417969 447.949219 800.613281 454.476562 799.648438 460.984375 C 798.683594 467.492188 797.558594 473.972656 796.277344 480.425781 C 794.992188 486.878906 793.550781 493.296875 791.953125 499.679688 C 790.355469 506.058594 788.601562 512.398438 786.691406 518.695312 C 784.78125 524.988281 782.71875 531.234375 780.5 537.429688 C 778.285156 543.625 775.917969 549.761719 773.398438 555.839844 C 770.882812 561.917969 768.214844 567.929688 765.402344 573.878906 C 762.589844 579.824219 759.632812 585.699219 756.53125 591.5 C 753.429688 597.304688 750.1875 603.027344 746.804688 608.667969 C 743.425781 614.3125 739.90625 619.867188 736.25 625.339844 C 732.59375 630.808594 728.808594 636.1875 724.890625 641.472656 C 720.96875 646.753906 716.921875 651.941406 712.75 657.027344 C 708.578125 662.113281 704.28125 667.09375 699.863281 671.964844 C 695.445312 676.839844 690.910156 681.605469 686.257812 686.257812 C 681.605469 690.910156 676.839844 695.445312 671.964844 699.863281 C 667.089844 704.28125 662.113281 708.578125 657.027344 712.75 C 651.941406 716.921875 646.753906 720.96875 641.472656 724.890625 C 636.1875 728.808594 630.808594 732.59375 625.339844 736.25 C 619.867188 739.90625 614.3125 743.425781 608.667969 746.808594 C 603.027344 750.1875 597.304688 753.429688 591.5 756.53125 C 585.699219 759.632812 579.824219 762.589844 573.878906 765.402344 C 567.929688 768.214844 561.917969 770.882812 555.839844 773.398438 C 549.761719 775.917969 543.625 778.285156 537.429688 780.5 C 531.234375 782.71875 524.988281 784.78125 518.695312 786.691406 C 512.398438 788.601562 506.058594 790.355469 499.679688 791.953125 C 493.296875 793.550781 486.878906 794.992188 480.425781 796.277344 C 473.972656 797.558594 467.492188 798.683594 460.984375 799.648438 C 454.476562 800.613281 447.949219 801.417969 441.402344 802.0625 C 434.855469 802.707031 428.296875 803.191406 421.726562 803.515625 C 415.152344 803.839844 408.578125 804 402 804 C 395.421875 804 388.847656 803.839844 382.273438 803.515625 C 375.703125 803.191406 369.144531 802.707031 362.597656 802.0625 C 356.050781 801.417969 349.523438 800.613281 343.015625 799.648438 C 336.507812 798.683594 330.027344 797.558594 323.574219 796.277344 C 317.121094 794.992188 310.703125 793.550781 304.320312 791.953125 C 297.941406 790.355469 291.601562 788.601562 285.304688 786.691406 C 279.011719 784.78125 272.765625 782.71875 266.570312 780.5 C 260.375 778.285156 254.238281 775.917969 248.160156 773.398438 C 242.082031 770.882812 236.070312 768.214844 230.121094 765.402344 C 224.175781 762.589844 218.300781 759.632812 212.5 756.53125 C 206.695312 753.429688 200.972656 750.1875 195.332031 746.804688 C 189.6875 743.425781 184.132812 739.90625 178.660156 736.25 C 173.191406 732.59375 167.8125 728.808594 162.527344 724.890625 C 157.246094 720.96875 152.058594 716.921875 146.972656 712.75 C 141.886719 708.578125 136.90625 704.28125 132.035156 699.863281 C 127.160156 695.445312 122.394531 690.910156 117.742188 686.257812 C 113.089844 681.605469 108.554688 676.839844 104.136719 671.964844 C 99.71875 667.09375 95.421875 662.113281 91.25 657.027344 C 87.074219 651.941406 83.03125 646.753906 79.109375 641.472656 C 75.191406 636.1875 71.40625 630.808594 67.75 625.339844 C 64.09375 619.867188 60.574219 614.3125 57.191406 608.667969 C 53.8125 603.027344 50.570312 597.304688 47.46875 591.5 C 44.367188 585.699219 41.410156 579.824219 38.597656 573.878906 C 35.785156 567.929688 33.117188 561.917969 30.601562 555.839844 C 28.082031 549.761719 25.714844 543.625 23.5 537.429688 C 21.28125 531.234375 19.21875 524.988281 17.308594 518.695312 C 15.398438 512.398438 13.644531 506.058594 12.046875 499.679688 C 10.449219 493.296875 9.007812 486.878906 7.722656 480.425781 C 6.441406 473.972656 5.316406 467.492188 4.351562 460.984375 C 3.386719 454.476562 2.582031 447.949219 1.9375 441.402344 C 1.289062 434.855469 0.808594 428.296875 0.484375 421.726562 C 0.160156 415.152344 0 408.578125 0 402 C 0 395.421875 0.160156 388.847656 0.484375 382.273438 C 0.808594 375.703125 1.289062 369.144531 1.9375 362.597656 C 2.582031 356.050781 3.386719 349.523438 4.351562 343.015625 C 5.316406 336.507812 6.441406 330.027344 7.722656 323.574219 C 9.007812 317.121094 10.449219 310.703125 12.046875 304.320312 C 13.644531 297.941406 15.398438 291.601562 17.308594 285.304688 C 19.21875 279.011719 21.28125 272.765625 23.5 266.570312 C 25.714844 260.375 28.082031 254.238281 30.601562 248.160156 C 33.117188 242.082031 35.785156 236.070312 38.597656 230.121094 C 41.410156 224.175781 44.367188 218.300781 47.46875 212.5 C 50.570312 206.695312 53.8125 200.972656 57.191406 195.332031 C 60.574219 189.6875 64.09375 184.132812 67.75 178.660156 C 71.40625 173.191406 75.191406 167.8125 79.109375 162.527344 C 83.03125 157.246094 87.074219 152.058594 91.25 146.972656 C 95.421875 141.886719 99.71875 136.90625 104.136719 132.035156 C 108.554688 127.160156 113.089844 122.394531 117.742188 117.742188 C 122.394531 113.089844 127.160156 108.554688 132.035156 104.136719 C 136.90625 99.71875 141.886719 95.421875 146.972656 91.25 C 152.058594 87.074219 157.246094 83.03125 162.527344 79.109375 C 167.8125 75.191406 173.191406 71.40625 178.660156 67.75 C 184.132812 64.09375 189.6875 60.574219 195.332031 57.191406 C 200.972656 53.8125 206.695312 50.570312 212.5 47.46875 C 218.300781 44.367188 224.175781 41.410156 230.121094 38.597656 C 236.070312 35.785156 242.082031 33.117188 248.160156 30.601562 C 254.238281 28.082031 260.375 25.714844 266.570312 23.5 C 272.765625 21.28125 279.011719 19.21875 285.304688 17.308594 C 291.601562 15.398438 297.941406 13.644531 304.320312 12.046875 C 310.703125 10.449219 317.121094 9.007812 323.574219 7.722656 C 330.027344 6.441406 336.507812 5.316406 343.015625 4.351562 C 349.523438 3.386719 356.050781 2.582031 362.597656 1.9375 C 369.144531 1.289062 375.703125 0.808594 382.273438 0.484375 C 388.847656 0.160156 395.421875 0 402 0 C 408.578125 0 415.152344 0.160156 421.726562 0.484375 C 428.296875 0.808594 434.855469 1.289062 441.402344 1.9375 C 447.949219 2.582031 454.476562 3.386719 460.984375 4.351562 C 467.492188 5.316406 473.972656 6.441406 480.425781 7.722656 C 486.878906 9.007812 493.296875 10.449219 499.679688 12.046875 C 506.058594 13.644531 512.398438 15.398438 518.695312 17.308594 C 524.988281 19.21875 531.234375 21.28125 537.429688 23.5 C 543.625 25.714844 549.761719 28.082031 555.839844 30.601562 C 561.917969 33.117188 567.929688 35.785156 573.878906 38.597656 C 579.824219 41.410156 585.699219 44.367188 591.5 47.46875 C 597.304688 50.570312 603.027344 53.8125 608.667969 57.191406 C 614.3125 60.574219 619.867188 64.09375 625.339844 67.75 C 630.808594 71.40625 636.1875 75.191406 641.472656 79.109375 C 646.753906 83.03125 651.941406 87.074219 657.027344 91.25 C 662.113281 95.421875 667.09375 99.71875 671.964844 104.136719 C 676.839844 108.554688 681.605469 113.089844 686.257812 117.742188 C 690.910156 122.394531 695.445312 127.160156 699.863281 132.035156 C 704.28125 136.90625 708.578125 141.886719 712.75 146.972656 C 716.921875 152.058594 720.96875 157.246094 724.890625 162.527344 C 728.808594 167.8125 732.59375 173.191406 736.25 178.660156 C 739.90625 184.132812 743.425781 189.6875 746.808594 195.332031 C 750.1875 200.972656 753.429688 206.695312 756.53125 212.5 C 759.632812 218.300781 762.589844 224.175781 765.402344 230.121094 C 768.214844 236.070312 770.882812 242.082031 773.398438 248.160156 C 775.917969 254.238281 778.285156 260.375 780.5 266.570312 C 782.71875 272.765625 784.78125 279.011719 786.691406 285.304688 C 788.601562 291.601562 790.355469 297.941406 791.953125 304.320312 C 793.550781 310.703125 794.992188 317.121094 796.277344 323.574219 C 797.558594 330.027344 798.683594 336.507812 799.648438 343.015625 C 800.613281 349.523438 801.417969 356.050781 802.0625 362.597656 C 802.707031 369.144531 803.191406 375.703125 803.515625 382.273438 C 803.839844 388.847656 804 395.421875 804 402 Z M 804 402 " fill-opacity="1" fill-rule="nonzero"/><path fill="#075fe4" d="M 398.449219 533.085938 L 622.863281 533.085938 L 622.863281 576.660156 L 398.449219 576.660156 Z M 404.035156 420.183594 L 206.453125 597.710938 L 267.945312 442.34375 L 181.144531 383.800781 L 378.726562 206.289062 L 311.84375 371.570312 Z M 404.035156 420.183594 " fill-opacity="1" fill-rule="nonzero"/><g clip-path="url(#06de49cfc3)"><path fill="#ffffff" d="M 390.742188 409.367188 C 391.078125 409.269531 391.390625 409.121094 391.679688 408.925781 C 391.96875 408.726562 392.21875 408.484375 392.425781 408.207031 C 392.636719 407.925781 392.800781 407.621094 392.910156 407.289062 C 393.023438 406.957031 393.078125 406.617188 393.082031 406.265625 L 393.082031 252.363281 C 393.082031 251.867188 392.984375 251.390625 392.796875 250.933594 C 392.605469 250.476562 392.335938 250.070312 391.984375 249.722656 C 391.632812 249.371094 391.230469 249.101562 390.773438 248.910156 C 390.3125 248.722656 389.835938 248.625 389.34375 248.625 L 385.25 248.625 C 384.757812 248.625 384.277344 248.699219 383.804688 248.839844 C 383.332031 248.984375 382.890625 249.191406 382.480469 249.46875 C 382.070312 249.742188 381.710938 250.070312 381.398438 250.453125 C 381.085938 250.832031 380.835938 251.253906 380.648438 251.707031 L 300.339844 446.605469 C 299.492188 448.660156 299.039062 450.800781 298.984375 453.023438 C 298.929688 455.246094 299.277344 457.40625 300.019531 459.5 L 322.621094 523.03125 L 315.667969 523.03125 C 315.222656 523.03125 314.78125 523.074219 314.34375 523.164062 C 313.90625 523.25 313.484375 523.378906 313.070312 523.550781 C 312.660156 523.722656 312.265625 523.929688 311.898438 524.179688 C 311.527344 524.425781 311.183594 524.707031 310.867188 525.023438 C 310.550781 525.339844 310.269531 525.683594 310.023438 526.050781 C 309.773438 526.421875 309.566406 526.816406 309.394531 527.226562 C 309.222656 527.636719 309.09375 528.0625 309.007812 528.5 C 308.917969 528.9375 308.875 529.378906 308.875 529.824219 L 308.875 557.445312 C 308.875 557.890625 308.917969 558.332031 309.007812 558.769531 C 309.09375 559.207031 309.222656 559.632812 309.394531 560.042969 C 309.566406 560.453125 309.773438 560.847656 310.023438 561.21875 C 310.269531 561.585938 310.550781 561.929688 310.867188 562.246094 C 311.183594 562.5625 311.527344 562.84375 311.898438 563.089844 C 312.265625 563.339844 312.660156 563.546875 313.070312 563.71875 C 313.484375 563.890625 313.90625 564.019531 314.34375 564.105469 C 314.78125 564.195312 315.222656 564.238281 315.667969 564.238281 L 320.585938 564.238281 L 320.585938 615.246094 C 320.585938 615.695312 320.628906 616.140625 320.71875 616.582031 C 320.804688 617.019531 320.9375 617.449219 321.109375 617.863281 C 321.28125 618.28125 321.492188 618.675781 321.742188 619.050781 C 321.992188 619.421875 322.273438 619.769531 322.59375 620.085938 C 322.910156 620.40625 323.257812 620.6875 323.632812 620.9375 C 324.003906 621.1875 324.398438 621.398438 324.816406 621.570312 C 325.230469 621.746094 325.660156 621.875 326.097656 621.960938 C 326.539062 622.050781 326.984375 622.09375 327.433594 622.097656 L 476.019531 622.097656 C 476.46875 622.09375 476.914062 622.050781 477.355469 621.960938 C 477.796875 621.875 478.222656 621.746094 478.640625 621.570312 C 479.054688 621.398438 479.449219 621.1875 479.824219 620.9375 C 480.195312 620.6875 480.542969 620.40625 480.859375 620.085938 C 481.179688 619.769531 481.464844 619.421875 481.714844 619.050781 C 481.964844 618.675781 482.175781 618.28125 482.347656 617.863281 C 482.519531 617.449219 482.648438 617.023438 482.738281 616.582031 C 482.824219 616.140625 482.871094 615.695312 482.871094 615.246094 L 482.871094 576.699219 C 482.871094 576.277344 482.789062 575.875 482.628906 575.488281 C 482.46875 575.101562 482.242188 574.761719 481.945312 574.464844 C 481.648438 574.167969 481.308594 573.941406 480.921875 573.78125 C 480.535156 573.621094 480.128906 573.539062 479.710938 573.539062 C 479.292969 573.539062 478.890625 573.621094 478.503906 573.78125 C 478.117188 573.941406 477.773438 574.167969 477.480469 574.464844 C 477.183594 574.761719 476.953125 575.101562 476.792969 575.488281 C 476.632812 575.875 476.554688 576.277344 476.554688 576.699219 L 476.554688 615.246094 C 476.554688 615.390625 476.5 615.519531 476.398438 615.621094 C 476.292969 615.726562 476.167969 615.78125 476.019531 615.78125 L 327.433594 615.78125 C 327.289062 615.78125 327.160156 615.726562 327.058594 615.621094 C 326.953125 615.519531 326.902344 615.390625 326.898438 615.246094 L 326.898438 564.238281 L 487.785156 564.238281 C 488.230469 564.238281 488.671875 564.195312 489.109375 564.105469 C 489.546875 564.019531 489.972656 563.890625 490.382812 563.71875 C 490.796875 563.546875 491.1875 563.339844 491.558594 563.089844 C 491.929688 562.84375 492.273438 562.5625 492.585938 562.246094 C 492.902344 561.929688 493.183594 561.585938 493.433594 561.21875 C 493.679688 560.847656 493.890625 560.453125 494.058594 560.042969 C 494.230469 559.628906 494.359375 559.207031 494.449219 558.769531 C 494.535156 558.332031 494.578125 557.890625 494.578125 557.445312 L 494.578125 529.824219 C 494.578125 529.378906 494.535156 528.9375 494.449219 528.5 C 494.359375 528.0625 494.230469 527.636719 494.058594 527.226562 C 493.890625 526.816406 493.679688 526.421875 493.433594 526.050781 C 493.183594 525.683594 492.902344 525.339844 492.585938 525.023438 C 492.273438 524.707031 491.929688 524.425781 491.558594 524.179688 C 491.1875 523.929688 490.796875 523.722656 490.382812 523.550781 C 489.972656 523.378906 489.546875 523.25 489.109375 523.164062 C 488.671875 523.074219 488.230469 523.03125 487.785156 523.03125 L 480.835938 523.03125 L 503.433594 459.5 C 504.179688 457.40625 504.523438 455.246094 504.46875 453.023438 C 504.414062 450.800781 503.964844 448.660156 503.117188 446.605469 L 422.804688 251.707031 C 422.617188 251.253906 422.367188 250.832031 422.054688 250.453125 C 421.742188 250.070312 421.382812 249.742188 420.972656 249.46875 C 420.5625 249.191406 420.121094 248.984375 419.652344 248.839844 C 419.179688 248.699219 418.695312 248.625 418.203125 248.625 L 414.113281 248.625 C 413.617188 248.625 413.140625 248.722656 412.683594 248.910156 C 412.222656 249.101562 411.820312 249.371094 411.46875 249.722656 C 411.117188 250.070312 410.847656 250.476562 410.660156 250.933594 C 410.46875 251.390625 410.375 251.867188 410.375 252.363281 L 410.375 406.265625 C 410.375 406.617188 410.433594 406.957031 410.542969 407.289062 C 410.65625 407.621094 410.816406 407.929688 411.03125 408.207031 C 411.242188 408.488281 411.492188 408.726562 411.78125 408.925781 C 412.066406 409.125 412.382812 409.273438 412.71875 409.371094 C 413.75 409.675781 414.765625 410.027344 415.769531 410.417969 C 416.773438 410.808594 417.757812 411.242188 418.722656 411.71875 C 419.6875 412.191406 420.632812 412.707031 421.558594 413.257812 C 422.480469 413.8125 423.378906 414.402344 424.253906 415.03125 C 425.125 415.660156 425.972656 416.324219 426.789062 417.023438 C 427.609375 417.722656 428.398438 418.453125 429.152344 419.21875 C 429.910156 419.984375 430.636719 420.78125 431.324219 421.605469 C 432.015625 422.429688 432.671875 423.285156 433.289062 424.164062 C 433.910156 425.046875 434.488281 425.949219 435.035156 426.878906 C 435.578125 427.808594 436.082031 428.757812 436.542969 429.730469 C 437.007812 430.699219 437.429688 431.691406 437.8125 432.695312 C 438.191406 433.703125 438.53125 434.722656 438.828125 435.757812 C 439.121094 436.792969 439.375 437.839844 439.582031 438.894531 C 439.792969 439.953125 439.953125 441.015625 440.074219 442.085938 C 440.195312 443.152344 440.269531 444.226562 440.296875 445.300781 C 440.328125 446.378906 440.3125 447.453125 440.25 448.527344 C 439.210938 467.492188 422.21875 484.183594 403.238281 484.90625 C 402.078125 484.953125 400.914062 484.945312 399.753906 484.886719 C 398.589844 484.828125 397.433594 484.714844 396.285156 484.550781 C 395.132812 484.386719 393.988281 484.171875 392.859375 483.90625 C 391.726562 483.636719 390.609375 483.320312 389.503906 482.949219 C 388.402344 482.582031 387.316406 482.164062 386.253906 481.699219 C 385.1875 481.230469 384.144531 480.71875 383.125 480.15625 C 382.105469 479.597656 381.113281 478.992188 380.148438 478.339844 C 379.1875 477.691406 378.253906 476.996094 377.351562 476.261719 C 376.449219 475.527344 375.582031 474.753906 374.75 473.941406 C 373.917969 473.128906 373.125 472.277344 372.371094 471.394531 C 371.617188 470.507812 370.902344 469.589844 370.230469 468.640625 C 369.558594 467.691406 368.933594 466.714844 368.347656 465.707031 C 367.765625 464.703125 367.226562 463.671875 366.738281 462.617188 C 366.246094 461.5625 365.804688 460.488281 365.414062 459.390625 C 365.019531 458.296875 364.675781 457.1875 364.382812 456.0625 C 364.09375 454.9375 363.851562 453.800781 363.660156 452.652344 C 363.472656 451.503906 363.332031 450.351562 363.25 449.191406 C 363.164062 448.03125 363.128906 446.867188 363.148438 445.707031 C 363.167969 444.542969 363.242188 443.382812 363.367188 442.226562 C 363.488281 441.070312 363.667969 439.921875 363.894531 438.78125 C 364.121094 437.640625 364.402344 436.511719 364.734375 435.398438 C 365.0625 434.28125 365.441406 433.183594 365.871094 432.101562 C 366.300781 431.023438 366.78125 429.964844 367.304688 428.925781 C 367.832031 427.886719 368.402344 426.875 369.019531 425.890625 C 369.636719 424.902344 370.296875 423.949219 371 423.019531 C 371.703125 422.09375 372.445312 421.203125 373.230469 420.34375 C 374.015625 419.484375 374.835938 418.664062 375.695312 417.878906 C 376.554688 417.09375 377.445312 416.347656 378.371094 415.644531 C 379.296875 414.941406 380.253906 414.277344 381.238281 413.660156 C 382.222656 413.042969 383.234375 412.472656 384.273438 411.945312 C 385.308594 411.417969 386.371094 410.941406 387.449219 410.511719 C 388.53125 410.082031 389.628906 409.699219 390.742188 409.367188 Z M 488.265625 529.824219 L 488.265625 557.445312 C 488.265625 557.574219 488.21875 557.6875 488.125 557.78125 C 488.03125 557.875 487.917969 557.921875 487.785156 557.921875 L 315.667969 557.921875 C 315.539062 557.921875 315.425781 557.875 315.332031 557.78125 C 315.238281 557.6875 315.191406 557.574219 315.191406 557.445312 L 315.191406 529.824219 C 315.191406 529.695312 315.238281 529.582031 315.332031 529.488281 C 315.425781 529.394531 315.539062 529.347656 315.667969 529.347656 L 487.785156 529.347656 C 487.917969 529.347656 488.03125 529.394531 488.125 529.488281 C 488.21875 529.582031 488.265625 529.695312 488.265625 529.824219 Z M 488.265625 529.824219 " fill-opacity="1" fill-rule="nonzero"/></g><path fill="#ffffff" d="M 343.546875 213.789062 C 340.125 215.195312 336.757812 216.726562 333.449219 218.378906 C 330.136719 220.027344 326.890625 221.796875 323.707031 223.6875 C 320.527344 225.574219 317.414062 227.574219 314.378906 229.6875 C 311.339844 231.800781 308.382812 234.019531 305.507812 236.347656 C 302.632812 238.671875 299.84375 241.101562 297.144531 243.632812 C 294.441406 246.160156 291.839844 248.785156 289.328125 251.503906 C 286.820312 254.222656 284.410156 257.027344 282.105469 259.921875 C 279.796875 262.8125 277.597656 265.785156 275.507812 268.839844 C 273.417969 271.890625 271.441406 275.015625 269.578125 278.210938 C 267.710938 281.410156 265.964844 284.667969 264.339844 287.988281 C 262.710938 291.3125 261.207031 294.691406 259.824219 298.121094 C 258.441406 301.554688 257.183594 305.03125 256.054688 308.554688 C 254.921875 312.078125 253.921875 315.636719 253.046875 319.230469 C 252.175781 322.828125 251.433594 326.449219 250.824219 330.097656 C 250.214844 333.75 249.738281 337.414062 249.394531 341.097656 C 249.050781 344.78125 248.84375 348.472656 248.765625 352.171875 L 235.933594 352.171875 C 235.484375 352.175781 235.039062 352.21875 234.601562 352.304688 C 234.160156 352.394531 233.734375 352.523438 233.320312 352.695312 C 232.90625 352.867188 232.511719 353.078125 232.136719 353.328125 C 231.765625 353.578125 231.421875 353.859375 231.105469 354.175781 C 230.785156 354.492188 230.503906 354.839844 230.253906 355.210938 C 230.003906 355.585938 229.792969 355.976562 229.621094 356.390625 C 229.449219 356.804688 229.320312 357.234375 229.234375 357.671875 C 229.144531 358.113281 229.101562 358.558594 229.101562 359.003906 L 229.101562 390.921875 C 229.101562 391.367188 229.144531 391.8125 229.234375 392.253906 C 229.320312 392.691406 229.449219 393.121094 229.621094 393.535156 C 229.792969 393.949219 230.003906 394.339844 230.253906 394.714844 C 230.503906 395.085938 230.785156 395.433594 231.105469 395.75 C 231.421875 396.066406 231.765625 396.347656 232.136719 396.597656 C 232.511719 396.847656 232.90625 397.058594 233.320312 397.230469 C 233.734375 397.402344 234.160156 397.53125 234.601562 397.621094 C 235.039062 397.707031 235.484375 397.75 235.933594 397.753906 L 267.847656 397.753906 C 268.296875 397.75 268.738281 397.707031 269.179688 397.621094 C 269.621094 397.53125 270.046875 397.402344 270.460938 397.230469 C 270.875 397.058594 271.269531 396.847656 271.640625 396.597656 C 272.015625 396.347656 272.359375 396.066406 272.675781 395.75 C 272.992188 395.433594 273.277344 395.085938 273.527344 394.714844 C 273.773438 394.339844 273.984375 393.949219 274.15625 393.535156 C 274.328125 393.121094 274.457031 392.691406 274.546875 392.253906 C 274.632812 391.8125 274.679688 391.367188 274.679688 390.921875 L 274.679688 359.003906 C 274.679688 358.558594 274.632812 358.113281 274.546875 357.671875 C 274.457031 357.234375 274.328125 356.804688 274.15625 356.390625 C 273.984375 355.976562 273.773438 355.585938 273.527344 355.210938 C 273.277344 354.839844 272.992188 354.492188 272.675781 354.175781 C 272.359375 353.859375 272.015625 353.578125 271.640625 353.328125 C 271.269531 353.078125 270.875 352.867188 270.460938 352.695312 C 270.046875 352.523438 269.621094 352.394531 269.179688 352.304688 C 268.738281 352.21875 268.296875 352.175781 267.847656 352.171875 L 255.082031 352.171875 C 255.160156 348.628906 255.363281 345.09375 255.695312 341.566406 C 256.027344 338.035156 256.488281 334.523438 257.074219 331.027344 C 257.660156 327.53125 258.375 324.0625 259.210938 320.617188 C 260.050781 317.175781 261.011719 313.765625 262.097656 310.390625 C 263.183594 307.015625 264.386719 303.6875 265.714844 300.398438 C 267.042969 297.113281 268.484375 293.878906 270.046875 290.695312 C 271.609375 287.511719 273.28125 284.390625 275.070312 281.332031 C 276.855469 278.269531 278.753906 275.277344 280.757812 272.355469 C 282.761719 269.429688 284.867188 266.582031 287.078125 263.8125 C 289.289062 261.042969 291.597656 258.355469 294.003906 255.75 C 296.40625 253.148438 298.902344 250.636719 301.492188 248.210938 C 304.078125 245.789062 306.75 243.464844 309.507812 241.234375 C 312.261719 239.007812 315.09375 236.878906 318.003906 234.855469 C 320.914062 232.832031 323.894531 230.917969 326.945312 229.109375 C 329.992188 227.300781 333.101562 225.605469 336.273438 224.023438 C 339.445312 222.441406 342.671875 220.976562 345.949219 219.628906 C 346.335938 219.46875 346.679688 219.242188 346.976562 218.945312 C 347.273438 218.648438 347.5 218.308594 347.664062 217.921875 C 347.824219 217.535156 347.90625 217.132812 347.90625 216.714844 C 347.90625 216.296875 347.828125 215.894531 347.667969 215.507812 C 347.507812 215.117188 347.28125 214.777344 346.984375 214.480469 C 346.691406 214.183594 346.347656 213.953125 345.960938 213.792969 C 345.574219 213.632812 345.171875 213.550781 344.753906 213.550781 C 344.335938 213.550781 343.933594 213.628906 343.546875 213.789062 Z M 267.847656 358.488281 C 267.988281 358.488281 268.113281 358.539062 268.210938 358.640625 C 268.3125 358.742188 268.363281 358.863281 268.363281 359.003906 L 268.363281 390.921875 C 268.363281 391.0625 268.3125 391.183594 268.210938 391.285156 C 268.113281 391.386719 267.988281 391.4375 267.847656 391.4375 L 235.933594 391.4375 C 235.789062 391.4375 235.667969 391.386719 235.566406 391.285156 C 235.464844 391.183594 235.417969 391.0625 235.417969 390.921875 L 235.417969 359.003906 C 235.417969 358.863281 235.464844 358.742188 235.566406 358.640625 C 235.667969 358.539062 235.789062 358.488281 235.933594 358.488281 Z M 267.847656 358.488281 " fill-opacity="1" fill-rule="nonzero"/><g clip-path="url(#6371fc4a4a)"><path fill="#ffffff" d="M 571.195312 182.703125 C 569.832031 182.707031 568.480469 182.828125 567.140625 183.074219 C 565.800781 183.316406 564.492188 183.679688 563.214844 184.15625 C 561.941406 184.636719 560.71875 185.222656 559.546875 185.921875 C 558.375 186.617188 557.277344 187.414062 556.25 188.308594 C 555.222656 189.203125 554.28125 190.179688 553.425781 191.242188 C 552.574219 192.308594 551.824219 193.4375 551.171875 194.632812 C 550.523438 195.832031 549.984375 197.078125 549.558594 198.371094 C 549.128906 199.664062 548.820312 200.988281 548.628906 202.335938 L 424.515625 202.335938 L 424.515625 189.535156 C 424.515625 189.089844 424.472656 188.644531 424.382812 188.203125 C 424.296875 187.765625 424.167969 187.335938 423.996094 186.921875 C 423.824219 186.507812 423.613281 186.117188 423.363281 185.742188 C 423.113281 185.371094 422.832031 185.023438 422.515625 184.707031 C 422.195312 184.390625 421.851562 184.109375 421.480469 183.859375 C 421.105469 183.609375 420.710938 183.398438 420.296875 183.226562 C 419.882812 183.054688 419.457031 182.925781 419.015625 182.835938 C 418.578125 182.75 418.132812 182.707031 417.683594 182.703125 L 385.769531 182.703125 C 385.320312 182.707031 384.875 182.75 384.4375 182.835938 C 383.996094 182.925781 383.570312 183.054688 383.15625 183.226562 C 382.742188 183.398438 382.347656 183.609375 381.976562 183.859375 C 381.601562 184.109375 381.257812 184.390625 380.941406 184.707031 C 380.625 185.023438 380.339844 185.371094 380.089844 185.742188 C 379.84375 186.117188 379.632812 186.507812 379.460938 186.921875 C 379.289062 187.335938 379.15625 187.765625 379.070312 188.203125 C 378.980469 188.644531 378.9375 189.089844 378.9375 189.535156 L 378.9375 202.335938 L 254.824219 202.335938 C 254.757812 201.867188 254.675781 201.398438 254.582031 200.929688 C 254.488281 200.464844 254.378906 200.003906 254.253906 199.542969 C 254.128906 199.085938 253.992188 198.632812 253.839844 198.179688 C 253.6875 197.730469 253.519531 197.285156 253.339844 196.847656 C 253.160156 196.40625 252.964844 195.972656 252.757812 195.546875 C 252.550781 195.117188 252.328125 194.695312 252.09375 194.28125 C 251.859375 193.867188 251.613281 193.460938 251.355469 193.0625 C 251.097656 192.664062 250.824219 192.277344 250.539062 191.894531 C 250.257812 191.511719 249.960938 191.140625 249.65625 190.777344 C 249.347656 190.414062 249.03125 190.0625 248.699219 189.71875 C 248.371094 189.375 248.03125 189.042969 247.683594 188.722656 C 247.332031 188.398438 246.972656 188.089844 246.605469 187.789062 C 246.234375 187.492188 245.855469 187.203125 245.46875 186.925781 C 245.082031 186.652344 244.6875 186.386719 244.28125 186.136719 C 243.878906 185.886719 243.46875 185.648438 243.050781 185.421875 C 242.628906 185.199219 242.207031 184.988281 241.773438 184.789062 C 241.339844 184.589844 240.902344 184.40625 240.460938 184.234375 C 240.015625 184.0625 239.570312 183.90625 239.117188 183.761719 C 238.660156 183.617188 238.203125 183.488281 237.742188 183.375 C 237.28125 183.261719 236.816406 183.160156 236.351562 183.074219 C 235.882812 182.992188 235.414062 182.917969 234.941406 182.863281 C 234.46875 182.808594 233.996094 182.765625 233.519531 182.738281 C 233.046875 182.714844 232.570312 182.703125 232.09375 182.707031 C 231.621094 182.707031 231.144531 182.726562 230.671875 182.757812 C 230.195312 182.792969 229.722656 182.839844 229.253906 182.902344 C 228.78125 182.964844 228.3125 183.042969 227.847656 183.136719 C 227.378906 183.226562 226.917969 183.332031 226.457031 183.453125 C 225.996094 183.574219 225.542969 183.710938 225.089844 183.859375 C 224.640625 184.007812 224.195312 184.171875 223.753906 184.351562 C 223.3125 184.527344 222.875 184.71875 222.449219 184.921875 C 222.019531 185.128906 221.597656 185.34375 221.179688 185.574219 C 220.765625 185.808594 220.359375 186.050781 219.957031 186.308594 C 219.558594 186.5625 219.164062 186.832031 218.78125 187.113281 C 218.398438 187.394531 218.023438 187.6875 217.660156 187.992188 C 217.292969 188.296875 216.9375 188.609375 216.59375 188.9375 C 216.25 189.265625 215.914062 189.601562 215.589844 189.949219 C 215.265625 190.296875 214.953125 190.652344 214.648438 191.019531 C 214.347656 191.386719 214.058594 191.765625 213.78125 192.148438 C 213.5 192.535156 213.234375 192.929688 212.980469 193.332031 C 212.726562 193.734375 212.488281 194.144531 212.257812 194.558594 C 212.03125 194.976562 211.816406 195.402344 211.613281 195.832031 C 211.414062 196.261719 211.226562 196.699219 211.050781 197.140625 C 210.875 197.582031 210.714844 198.03125 210.570312 198.480469 C 210.425781 198.933594 210.292969 199.390625 210.175781 199.851562 C 210.054688 200.3125 209.953125 200.777344 209.863281 201.242188 C 209.777344 201.710938 209.703125 202.179688 209.644531 202.652344 C 209.582031 203.121094 209.539062 203.59375 209.507812 204.070312 C 209.480469 204.542969 209.464844 205.019531 209.464844 205.496094 C 209.464844 205.96875 209.480469 206.445312 209.507812 206.917969 C 209.539062 207.394531 209.582031 207.867188 209.644531 208.339844 C 209.703125 208.808594 209.777344 209.277344 209.863281 209.746094 C 209.953125 210.210938 210.054688 210.675781 210.175781 211.136719 C 210.292969 211.597656 210.425781 212.054688 210.570312 212.507812 C 210.714844 212.957031 210.875 213.40625 211.050781 213.847656 C 211.226562 214.289062 211.414062 214.726562 211.613281 215.15625 C 211.816406 215.585938 212.03125 216.011719 212.257812 216.429688 C 212.488281 216.847656 212.726562 217.253906 212.980469 217.65625 C 213.234375 218.058594 213.5 218.453125 213.78125 218.839844 C 214.058594 219.222656 214.347656 219.601562 214.648438 219.96875 C 214.953125 220.335938 215.265625 220.691406 215.589844 221.039062 C 215.914062 221.386719 216.25 221.722656 216.59375 222.050781 C 216.9375 222.378906 217.292969 222.691406 217.660156 222.996094 C 218.023438 223.300781 218.398438 223.59375 218.78125 223.875 C 219.164062 224.15625 219.558594 224.425781 219.957031 224.679688 C 220.359375 224.9375 220.765625 225.183594 221.179688 225.414062 C 221.597656 225.644531 222.019531 225.863281 222.449219 226.066406 C 222.875 226.269531 223.3125 226.460938 223.753906 226.640625 C 224.195312 226.816406 224.640625 226.980469 225.089844 227.128906 C 225.542969 227.277344 225.996094 227.414062 226.457031 227.535156 C 226.917969 227.65625 227.378906 227.761719 227.847656 227.851562 C 228.3125 227.945312 228.78125 228.023438 229.253906 228.085938 C 229.722656 228.148438 230.195312 228.195312 230.671875 228.230469 C 231.144531 228.261719 231.621094 228.28125 232.09375 228.28125 C 232.570312 228.285156 233.046875 228.273438 233.519531 228.25 C 233.996094 228.222656 234.46875 228.179688 234.941406 228.125 C 235.414062 228.070312 235.882812 227.996094 236.351562 227.914062 C 236.816406 227.828125 237.28125 227.726562 237.742188 227.613281 C 238.203125 227.5 238.660156 227.371094 239.117188 227.226562 C 239.570312 227.082031 240.015625 226.925781 240.460938 226.753906 C 240.902344 226.582031 241.339844 226.398438 241.773438 226.199219 C 242.207031 226 242.628906 225.789062 243.050781 225.566406 C 243.46875 225.339844 243.878906 225.101562 244.28125 224.851562 C 244.6875 224.601562 245.082031 224.335938 245.46875 224.0625 C 245.855469 223.785156 246.234375 223.496094 246.605469 223.199219 C 246.972656 222.898438 247.332031 222.589844 247.683594 222.265625 C 248.03125 221.945312 248.371094 221.613281 248.699219 221.269531 C 249.03125 220.925781 249.347656 220.574219 249.65625 220.210938 C 249.960938 219.847656 250.257812 219.476562 250.539062 219.09375 C 250.824219 218.710938 251.097656 218.324219 251.355469 217.925781 C 251.613281 217.527344 251.859375 217.121094 252.09375 216.707031 C 252.328125 216.292969 252.550781 215.871094 252.757812 215.445312 C 252.964844 215.015625 253.160156 214.582031 253.339844 214.140625 C 253.519531 213.703125 253.6875 213.257812 253.839844 212.808594 C 253.992188 212.355469 254.128906 211.902344 254.253906 211.445312 C 254.378906 210.984375 254.488281 210.523438 254.582031 210.058594 C 254.675781 209.589844 254.757812 209.121094 254.824219 208.652344 L 378.9375 208.652344 L 378.9375 221.453125 C 378.9375 221.898438 378.980469 222.34375 379.070312 222.785156 C 379.15625 223.222656 379.289062 223.652344 379.460938 224.066406 C 379.632812 224.480469 379.84375 224.871094 380.089844 225.246094 C 380.339844 225.617188 380.625 225.964844 380.941406 226.28125 C 381.257812 226.597656 381.601562 226.878906 381.976562 227.128906 C 382.347656 227.378906 382.742188 227.589844 383.15625 227.761719 C 383.570312 227.933594 383.996094 228.0625 384.4375 228.152344 C 384.875 228.238281 385.320312 228.28125 385.769531 228.285156 L 417.683594 228.285156 C 418.132812 228.28125 418.578125 228.238281 419.015625 228.152344 C 419.457031 228.0625 419.882812 227.933594 420.296875 227.761719 C 420.710938 227.589844 421.105469 227.378906 421.480469 227.128906 C 421.851562 226.878906 422.195312 226.597656 422.515625 226.28125 C 422.832031 225.964844 423.113281 225.617188 423.363281 225.246094 C 423.613281 224.871094 423.824219 224.480469 423.996094 224.066406 C 424.167969 223.652344 424.296875 223.222656 424.382812 222.785156 C 424.472656 222.34375 424.515625 221.898438 424.515625 221.453125 L 424.515625 210.414062 C 494.363281 221.308594 546.851562 281.347656 548.371094 352.171875 L 535.605469 352.171875 C 535.160156 352.175781 534.714844 352.21875 534.273438 352.304688 C 533.835938 352.394531 533.40625 352.523438 532.992188 352.695312 C 532.578125 352.867188 532.1875 353.078125 531.8125 353.328125 C 531.441406 353.578125 531.09375 353.859375 530.777344 354.175781 C 530.460938 354.492188 530.179688 354.839844 529.929688 355.210938 C 529.679688 355.585938 529.46875 355.976562 529.296875 356.390625 C 529.125 356.804688 528.996094 357.234375 528.90625 357.671875 C 528.820312 358.113281 528.777344 358.558594 528.773438 359.003906 L 528.773438 390.921875 C 528.777344 391.367188 528.820312 391.8125 528.90625 392.253906 C 528.996094 392.691406 529.125 393.121094 529.296875 393.535156 C 529.46875 393.949219 529.679688 394.339844 529.929688 394.714844 C 530.179688 395.085938 530.460938 395.433594 530.777344 395.75 C 531.09375 396.066406 531.441406 396.347656 531.8125 396.597656 C 532.1875 396.847656 532.578125 397.058594 532.992188 397.230469 C 533.40625 397.402344 533.835938 397.53125 534.273438 397.621094 C 534.714844 397.707031 535.160156 397.75 535.605469 397.753906 L 567.523438 397.753906 C 567.96875 397.75 568.414062 397.707031 568.855469 397.621094 C 569.292969 397.53125 569.722656 397.402344 570.136719 397.230469 C 570.550781 397.058594 570.941406 396.847656 571.316406 396.597656 C 571.6875 396.347656 572.035156 396.066406 572.351562 395.75 C 572.667969 395.433594 572.949219 395.085938 573.199219 394.714844 C 573.449219 394.339844 573.660156 393.949219 573.832031 393.535156 C 574.003906 393.121094 574.132812 392.691406 574.222656 392.253906 C 574.308594 391.8125 574.351562 391.367188 574.355469 390.921875 L 574.355469 359.003906 C 574.351562 358.558594 574.308594 358.113281 574.222656 357.671875 C 574.132812 357.234375 574.003906 356.804688 573.832031 356.390625 C 573.660156 355.976562 573.449219 355.585938 573.199219 355.210938 C 572.949219 354.839844 572.667969 354.492188 572.351562 354.175781 C 572.035156 353.859375 571.6875 353.578125 571.316406 353.328125 C 570.941406 353.078125 570.550781 352.867188 570.136719 352.695312 C 569.722656 352.523438 569.292969 352.394531 568.855469 352.304688 C 568.414062 352.21875 567.96875 352.175781 567.523438 352.171875 L 554.6875 352.171875 C 554.601562 348.152344 554.363281 344.140625 553.960938 340.140625 C 553.5625 336.136719 553.003906 332.15625 552.292969 328.199219 C 551.578125 324.242188 550.710938 320.316406 549.6875 316.425781 C 548.664062 312.539062 547.492188 308.695312 546.164062 304.898438 C 544.839844 301.101562 543.367188 297.359375 541.746094 293.679688 C 540.125 290 538.363281 286.386719 536.457031 282.84375 C 534.550781 279.304688 532.511719 275.84375 530.332031 272.460938 C 528.152344 269.078125 525.847656 265.789062 523.410156 262.589844 C 520.972656 259.390625 518.414062 256.292969 515.730469 253.296875 C 513.050781 250.296875 510.253906 247.410156 507.34375 244.632812 C 504.4375 241.855469 501.421875 239.199219 498.304688 236.660156 C 495.183594 234.117188 491.96875 231.707031 488.660156 229.417969 C 485.351562 227.132812 481.960938 224.980469 478.480469 222.960938 C 475.003906 220.945312 471.449219 219.066406 467.824219 217.324219 C 464.195312 215.585938 460.507812 213.992188 456.753906 212.546875 C 453.003906 211.097656 449.199219 209.800781 445.34375 208.652344 L 548.628906 208.652344 C 548.730469 209.371094 548.867188 210.082031 549.035156 210.785156 C 549.203125 211.488281 549.402344 212.183594 549.636719 212.871094 C 549.871094 213.554688 550.140625 214.226562 550.4375 214.886719 C 550.734375 215.546875 551.066406 216.191406 551.425781 216.820312 C 551.785156 217.449219 552.175781 218.058594 552.59375 218.648438 C 553.011719 219.242188 553.457031 219.808594 553.929688 220.359375 C 554.402344 220.910156 554.898438 221.433594 555.421875 221.933594 C 555.945312 222.4375 556.488281 222.910156 557.058594 223.359375 C 557.625 223.8125 558.214844 224.230469 558.820312 224.625 C 559.429688 225.019531 560.054688 225.382812 560.699219 225.714844 C 561.339844 226.050781 561.996094 226.351562 562.667969 226.625 C 563.339844 226.894531 564.023438 227.132812 564.71875 227.339844 C 565.414062 227.542969 566.113281 227.71875 566.824219 227.855469 C 567.535156 227.996094 568.253906 228.101562 568.972656 228.171875 C 569.695312 228.242188 570.417969 228.277344 571.140625 228.28125 C 571.863281 228.28125 572.589844 228.25 573.308594 228.179688 C 574.03125 228.113281 574.746094 228.011719 575.457031 227.878906 C 576.167969 227.742188 576.871094 227.574219 577.570312 227.371094 C 578.265625 227.167969 578.949219 226.933594 579.621094 226.664062 C 580.292969 226.398438 580.953125 226.097656 581.597656 225.769531 C 582.242188 225.4375 582.867188 225.078125 583.480469 224.6875 C 584.089844 224.296875 584.679688 223.878906 585.25 223.433594 C 585.820312 222.984375 586.367188 222.511719 586.890625 222.011719 C 587.417969 221.515625 587.917969 220.992188 588.394531 220.445312 C 588.867188 219.898438 589.316406 219.332031 589.738281 218.742188 C 590.160156 218.152344 590.550781 217.542969 590.914062 216.917969 C 591.277344 216.292969 591.609375 215.648438 591.910156 214.992188 C 592.214844 214.332031 592.484375 213.660156 592.722656 212.976562 C 592.960938 212.292969 593.164062 211.597656 593.335938 210.894531 C 593.507812 210.191406 593.644531 209.480469 593.75 208.765625 C 593.851562 208.046875 593.921875 207.328125 593.957031 206.605469 C 593.992188 205.882812 593.996094 205.15625 593.960938 204.433594 C 593.925781 203.710938 593.859375 202.992188 593.757812 202.273438 C 593.65625 201.558594 593.519531 200.847656 593.347656 200.140625 C 593.179688 199.4375 592.976562 198.742188 592.738281 198.058594 C 592.503906 197.375 592.234375 196.703125 591.933594 196.042969 C 591.632812 195.382812 591.304688 194.742188 590.941406 194.113281 C 590.578125 193.484375 590.1875 192.878906 589.769531 192.285156 C 589.347656 191.695312 588.902344 191.128906 588.429688 190.582031 C 587.953125 190.03125 587.457031 189.507812 586.933594 189.007812 C 586.40625 188.507812 585.863281 188.035156 585.292969 187.585938 C 584.722656 187.136719 584.132812 186.71875 583.523438 186.328125 C 582.917969 185.933594 582.289062 185.574219 581.644531 185.242188 C 581.003906 184.910156 580.34375 184.609375 579.671875 184.339844 C 579 184.070312 578.316406 183.832031 577.621094 183.628906 C 576.925781 183.425781 576.222656 183.253906 575.511719 183.117188 C 574.800781 182.980469 574.085938 182.875 573.363281 182.808594 C 572.644531 182.738281 571.921875 182.703125 571.195312 182.703125 Z M 232.257812 221.96875 C 232.226562 221.96875 232.199219 221.964844 232.167969 221.964844 C 235.640625 218.464844 237.9375 212.398438 237.9375 205.496094 C 237.9375 198.589844 235.640625 192.523438 232.167969 189.023438 C 232.199219 189.023438 232.226562 189.019531 232.257812 189.019531 C 232.796875 189.019531 233.335938 189.046875 233.875 189.101562 C 234.410156 189.152344 234.941406 189.230469 235.472656 189.335938 C 236 189.441406 236.523438 189.574219 237.039062 189.730469 C 237.558594 189.886719 238.0625 190.066406 238.5625 190.273438 C 239.0625 190.480469 239.546875 190.710938 240.023438 190.964844 C 240.5 191.21875 240.960938 191.496094 241.410156 191.796875 C 241.859375 192.097656 242.292969 192.417969 242.710938 192.757812 C 243.125 193.101562 243.527344 193.464844 243.90625 193.84375 C 244.289062 194.226562 244.652344 194.625 244.992188 195.042969 C 245.335938 195.460938 245.65625 195.894531 245.957031 196.34375 C 246.253906 196.789062 246.53125 197.253906 246.785156 197.726562 C 247.042969 198.203125 247.273438 198.691406 247.476562 199.191406 C 247.683594 199.6875 247.867188 200.195312 248.023438 200.710938 C 248.179688 201.226562 248.308594 201.75 248.414062 202.28125 C 248.519531 202.808594 248.601562 203.34375 248.652344 203.878906 C 248.707031 204.417969 248.730469 204.953125 248.730469 205.496094 C 248.730469 206.035156 248.707031 206.570312 248.652344 207.109375 C 248.601562 207.644531 248.519531 208.179688 248.414062 208.707031 C 248.308594 209.238281 248.179688 209.761719 248.023438 210.277344 C 247.867188 210.792969 247.683594 211.300781 247.476562 211.796875 C 247.273438 212.296875 247.042969 212.785156 246.785156 213.261719 C 246.53125 213.734375 246.253906 214.199219 245.957031 214.648438 C 245.65625 215.09375 245.335938 215.527344 244.992188 215.945312 C 244.652344 216.363281 244.289062 216.761719 243.90625 217.144531 C 243.527344 217.523438 243.125 217.886719 242.710938 218.230469 C 242.292969 218.570312 241.859375 218.890625 241.410156 219.191406 C 240.960938 219.492188 240.5 219.769531 240.023438 220.023438 C 239.546875 220.277344 239.0625 220.507812 238.5625 220.714844 C 238.0625 220.921875 237.558594 221.101562 237.039062 221.257812 C 236.523438 221.414062 236 221.546875 235.472656 221.652344 C 234.941406 221.757812 234.410156 221.835938 233.875 221.890625 C 233.335938 221.941406 232.796875 221.96875 232.257812 221.96875 Z M 418.199219 221.453125 C 418.199219 221.59375 418.152344 221.714844 418.050781 221.816406 C 417.949219 221.917969 417.828125 221.96875 417.683594 221.96875 L 385.769531 221.96875 C 385.625 221.96875 385.503906 221.917969 385.40625 221.816406 C 385.304688 221.714844 385.253906 221.59375 385.253906 221.453125 L 385.253906 189.535156 C 385.253906 189.394531 385.304688 189.273438 385.40625 189.171875 C 385.503906 189.070312 385.625 189.019531 385.769531 189.019531 L 417.683594 189.019531 C 417.828125 189.019531 417.949219 189.070312 418.050781 189.171875 C 418.152344 189.273438 418.199219 189.394531 418.199219 189.535156 Z M 567.523438 358.488281 C 567.664062 358.488281 567.785156 358.539062 567.886719 358.640625 C 567.988281 358.742188 568.039062 358.863281 568.039062 359.003906 L 568.039062 390.921875 C 568.039062 391.0625 567.988281 391.183594 567.886719 391.285156 C 567.785156 391.386719 567.664062 391.4375 567.523438 391.4375 L 535.605469 391.4375 C 535.464844 391.4375 535.34375 391.386719 535.242188 391.285156 C 535.140625 391.183594 535.089844 391.0625 535.089844 390.921875 L 535.089844 359.003906 C 535.089844 358.863281 535.140625 358.742188 535.242188 358.640625 C 535.34375 358.539062 535.464844 358.488281 535.605469 358.488281 Z M 571.195312 221.96875 C 571.164062 221.96875 571.136719 221.964844 571.105469 221.964844 C 574.578125 218.464844 576.875 212.398438 576.875 205.496094 C 576.875 198.589844 574.578125 192.523438 571.105469 189.023438 C 571.136719 189.023438 571.164062 189.019531 571.195312 189.019531 C 571.734375 189.019531 572.273438 189.046875 572.8125 189.101562 C 573.347656 189.152344 573.878906 189.230469 574.410156 189.335938 C 574.9375 189.441406 575.460938 189.574219 575.976562 189.730469 C 576.496094 189.886719 577 190.066406 577.5 190.273438 C 578 190.480469 578.484375 190.710938 578.960938 190.964844 C 579.4375 191.21875 579.898438 191.496094 580.347656 191.796875 C 580.796875 192.097656 581.230469 192.417969 581.648438 192.757812 C 582.0625 193.101562 582.464844 193.464844 582.84375 193.84375 C 583.226562 194.226562 583.589844 194.625 583.929688 195.042969 C 584.273438 195.460938 584.59375 195.894531 584.894531 196.34375 C 585.191406 196.789062 585.46875 197.253906 585.722656 197.726562 C 585.980469 198.203125 586.210938 198.691406 586.414062 199.191406 C 586.621094 199.6875 586.804688 200.195312 586.960938 200.710938 C 587.117188 201.226562 587.246094 201.75 587.351562 202.28125 C 587.457031 202.808594 587.539062 203.34375 587.589844 203.878906 C 587.644531 204.417969 587.667969 204.953125 587.667969 205.496094 C 587.667969 206.035156 587.644531 206.570312 587.589844 207.109375 C 587.539062 207.644531 587.457031 208.179688 587.351562 208.707031 C 587.246094 209.238281 587.117188 209.761719 586.960938 210.277344 C 586.804688 210.792969 586.621094 211.300781 586.414062 211.796875 C 586.210938 212.296875 585.980469 212.785156 585.722656 213.261719 C 585.46875 213.734375 585.191406 214.199219 584.894531 214.648438 C 584.59375 215.09375 584.273438 215.527344 583.929688 215.945312 C 583.589844 216.363281 583.226562 216.761719 582.84375 217.144531 C 582.464844 217.523438 582.0625 217.886719 581.648438 218.230469 C 581.230469 218.570312 580.796875 218.890625 580.347656 219.191406 C 579.898438 219.492188 579.4375 219.769531 578.960938 220.023438 C 578.484375 220.277344 578 220.507812 577.5 220.714844 C 577 220.921875 576.496094 221.101562 575.976562 221.257812 C 575.460938 221.414062 574.9375 221.546875 574.410156 221.652344 C 573.878906 221.757812 573.347656 221.835938 572.8125 221.890625 C 572.273438 221.941406 571.734375 221.96875 571.195312 221.96875 Z M 571.195312 221.96875 " fill-opacity="1" fill-rule="nonzero"/></g></svg>